<svg version="1.1" viewBox="0.0 0.0 2179.721784776903 1191.6246719160106" fill="none" stroke="none" stroke-linecap="square" stroke-miterlimit="10" xmlns:xlink="http://www.w3.org/1999/xlink" xmlns="http://www.w3.org/2000/svg"><clipPath id="p.0"><path d="m0 0l2179.7217 0l0 1191.6246l-2179.7217 0l0 -1191.6246z" clip-rule="nonzero"/></clipPath><g clip-path="url(#p.0)"><path fill="#000000" fill-opacity="0.0" d="m0 0l2179.7217 0l0 1191.6246l-2179.7217 0z" fill-rule="evenodd"/><path fill="#b7b7b7" d="m230.49922 363.43063l0 0c-0.330307 -186.39099 149.87523 -338.0872 336.26044 -339.5975c186.38513 -1.5103092 339.02924 147.73186 341.71948 334.10373l-55.977905 0.8080139c-2.2460327 -155.5944 -129.68243 -280.1907 -285.28796 -278.9298c-155.60553 1.2608948 -281.00613 127.90598 -280.73038 283.51636z" fill-rule="evenodd"/><path stroke="#b7b7b7" stroke-width="1.0" stroke-linejoin="round" stroke-linecap="butt" d="m230.49922 363.43063l0 0c-0.330307 -186.39099 149.87523 -338.0872 336.26044 -339.5975c186.38513 -1.5103092 339.02924 147.73186 341.71948 334.10373l-55.977905 0.8080139c-2.2460327 -155.5944 -129.68243 -280.1907 -285.28796 -278.9298c-155.60553 1.2608948 -281.00613 127.90598 -280.73038 283.51636z" fill-rule="evenodd"/><path fill="#b7b7b7" d="m908.50867 357.04968l0 0c0.33026123 186.39099 -149.87524 338.08722 -336.26044 339.59747c-186.38513 1.510315 -339.02924 -147.73181 -341.71948 -334.1037l55.977936 -0.8080139c2.2459717 155.59439 129.68243 280.1907 285.28793 278.92984c155.60553 -1.2609253 281.0061 -127.906006 280.73035 -283.5164z" fill-rule="evenodd"/><path stroke="#b7b7b7" stroke-width="1.0" stroke-linejoin="round" stroke-linecap="butt" d="m908.50867 357.04968l0 0c0.33026123 186.39099 -149.87524 338.08722 -336.26044 339.59747c-186.38513 1.510315 -339.02924 -147.73181 -341.71948 -334.1037l55.977936 -0.8080139c2.2459717 155.59439 129.68243 280.1907 285.28793 278.92984c155.60553 -1.2609253 281.0061 -127.906006 280.73035 -283.5164z" fill-rule="evenodd"/><path fill="#b7b7b7" d="m174.73811 962.13416l216.25197 -374.61414l51.77954 29.88977l-216.25197 374.61414z" fill-rule="evenodd"/><path stroke="#b7b7b7" stroke-width="1.0" stroke-linejoin="round" stroke-linecap="butt" d="m174.73811 962.13416l216.25197 -374.61414l51.77954 29.88977l-216.25197 374.61414z" fill-rule="evenodd"/><path fill="#b7b7b7" d="m83.32545 1065.3599l176.22049 -305.32288l103.08661 59.496094l-176.22047 305.32275z" fill-rule="evenodd"/><path stroke="#b7b7b7" stroke-width="1.0" stroke-linejoin="round" stroke-linecap="butt" d="m83.32545 1065.3599l176.22049 -305.32288l103.08661 59.496094l-176.22047 305.32275z" fill-rule="evenodd"/><path fill="#000000" fill-opacity="0.0" d="m936.31494 190.08398l1632.4409 0l0 414.6457l-1632.4409 0z" fill-rule="evenodd"/><path fill="#b7b7b7" d="m1045.315 457.2246q-25.0625 0 -43.609375 -11.59375q-18.53125 -11.609375 -28.53125 -33.34375q-10.0 -21.734375 -10.0 -51.0625q0 -29.609375 9.859375 -51.328125q9.875 -21.734375 28.40625 -33.328125q18.53125 -11.609375 43.875 -11.609375q25.328125 0 43.984375 11.609375q18.671875 11.59375 28.53125 33.1875q9.875 21.59375 9.875 51.203125q0 29.59375 -10.0 51.328125q-10.0 21.734375 -28.53125 33.34375q-18.53125 11.59375 -43.859375 11.59375zm0 -10.9375q33.59375 0 51.984375 -22.390625q18.40625 -22.40625 18.40625 -62.9375q0 -40.53125 -18.265625 -62.796875q-18.265625 -22.265625 -52.125 -22.265625q-33.34375 0 -51.75 22.265625q-18.390625 22.265625 -18.390625 62.796875q0 40.53125 18.390625 62.9375q18.40625 22.390625 51.75 22.390625zm171.72754 10.65625q-17.078125 0 -30.140625 -8.265625q-13.0625 -8.265625 -20.265625 -23.453125q-7.203125 -15.203125 -7.203125 -35.46875q0 -20.0 7.203125 -35.203125q7.203125 -15.203125 20.265625 -23.46875q13.0625 -8.265625 30.140625 -8.265625q17.0625 0 30.125 8.265625q13.0625 8.265625 20.265625 23.46875q7.203125 15.203125 7.203125 35.203125q0 20.265625 -7.203125 35.46875q-7.203125 15.1875 -20.265625 23.453125q-13.0625 8.265625 -30.125 8.265625zm-0.265625 -10.921875q22.125 0 33.984375 -14.53125q11.875 -14.53125 11.875 -41.734375q0 -26.40625 -12.140625 -41.203125q-12.125 -14.796875 -33.453125 -14.796875q-21.34375 0 -33.484375 14.796875q-12.125 14.796875 -12.125 41.203125q0 27.203125 11.859375 41.734375q11.875 14.53125 33.484375 14.53125zm150.92773 -123.203125q17.0625 0 30.125 8.40625q13.0625 8.390625 20.265625 23.59375q7.203125 15.203125 7.203125 35.46875q0 20.0 -7.203125 35.0625q-7.203125 15.0625 -20.265625 23.328125q-13.0625 8.265625 -30.125 8.265625q-16.265625 0 -27.875 -7.1875q-11.59375 -7.203125 -17.46875 -20.796875l0 69.328125q0 2.921875 -1.46875 4.515625q-1.453125 1.609375 -4.125 1.609375q-5.59375 0 -5.59375 -6.125l0 -169.0625q0 -2.671875 1.453125 -4.265625q1.46875 -1.609375 4.140625 -1.609375q2.671875 0 4.125 1.609375q1.46875 1.59375 1.46875 4.265625l0 21.0625q5.875 -13.328125 17.46875 -20.390625q11.609375 -7.078125 27.875 -7.078125zm-0.265625 123.203125q21.59375 0 33.59375 -14.53125q12.0 -14.53125 12.0 -41.203125q0 -26.671875 -12.0 -41.59375q-12.0 -14.9375 -33.328125 -14.9375q-21.875 0 -33.609375 14.53125q-11.734375 14.53125 -11.734375 41.46875q0 26.921875 11.734375 41.59375q11.734375 14.671875 33.34375 14.671875zm134.66064 10.921875q-10.40625 0 -20.8125 -3.0625q-10.390625 -3.0625 -18.65625 -8.390625q-5.34375 -3.46875 -7.203125 -5.734375q-1.859375 -2.265625 -1.859375 -5.203125q0 -1.875 1.328125 -3.328125q1.328125 -1.46875 3.203125 -1.46875q1.328125 0 3.59375 1.46875q2.265625 1.453125 3.0625 2.0q7.734375 5.59375 16.125 9.203125q8.40625 3.59375 21.21875 3.59375q17.328125 0 26.65625 -6.390625q9.328125 -6.40625 9.328125 -18.140625q0 -6.9375 -3.328125 -11.46875q-3.328125 -4.53125 -10.9375 -7.859375q-7.59375 -3.34375 -21.71875 -6.546875q-23.46875 -5.328125 -33.609375 -13.59375q-10.125 -8.265625 -10.125 -21.859375q0 -16.546875 12.921875 -26.9375q12.9375 -10.40625 33.46875 -10.40625q9.875 0 18.9375 2.671875q9.0625 2.671875 16.0 7.46875q5.0625 3.734375 7.328125 6.53125q2.265625 2.796875 2.265625 5.734375q0 1.859375 -1.328125 3.328125q-1.328125 1.46875 -3.203125 1.46875q-2.125 0 -6.9375 -4.0q-6.921875 -5.328125 -14.53125 -8.796875q-7.59375 -3.46875 -19.0625 -3.46875q-14.9375 0 -24.140625 7.0625q-9.1875 7.0625 -9.1875 18.53125q0 6.9375 2.921875 11.34375q2.9375 4.390625 10.0 7.59375q7.078125 3.203125 20.140625 6.140625q18.40625 4.53125 28.265625 9.203125q9.859375 4.65625 14.0 11.1875q4.140625 6.53125 4.140625 16.671875q0 16.0 -13.203125 25.734375q-13.203125 9.71875 -35.0625 9.71875zm90.92322 -0.53125q-4.53125 0 -7.46875 -2.921875q-2.9375 -2.9375 -2.9375 -7.734375q0 -4.796875 2.9375 -7.734375q2.9375 -2.9375 7.46875 -2.9375q4.265625 0 7.203125 2.9375q2.9375 2.9375 2.9375 7.734375q0 4.796875 -2.9375 7.734375q-2.9375 2.921875 -7.203125 2.921875zm56.53125 0q-4.53125 0 -7.46875 -2.921875q-2.9375 -2.9375 -2.9375 -7.734375q0 -4.796875 2.9375 -7.734375q2.9375 -2.9375 7.46875 -2.9375q4.265625 0 7.1875 2.9375q2.9375 2.9375 2.9375 7.734375q0 4.796875 -2.9375 7.734375q-2.921875 2.921875 -7.1875 2.921875zm56.53125 0q-4.53125 0 -7.46875 -2.921875q-2.9375 -2.9375 -2.9375 -7.734375q0 -4.796875 2.9375 -7.734375q2.9375 -2.9375 7.46875 -2.9375q4.265625 0 7.1875 2.9375q2.9375 2.9375 2.9375 7.734375q0 4.796875 -2.9375 7.734375q-2.921875 2.921875 -7.1875 2.921875z" fill-rule="nonzero"/><path fill="#000000" fill-opacity="0.0" d="m951.2598 567.3753l1477.4175 0l0 160.62994l-1477.4175 0z" fill-rule="evenodd"/><path fill="#b7b7b7" d="m973.9161 679.3066q-2.03125 0 -3.203125 -1.21875q-1.171875 -1.234375 -1.171875 -3.265625l0 -66.96875q0 -1.921875 1.21875 -3.09375q1.234375 -1.171875 3.265625 -1.171875l25.265625 0q11.84375 0 18.40625 5.765625q6.562561 5.75 6.562561 16.3125q0 10.546875 -6.625061 16.421875q-6.609375 5.859375 -18.34375 5.859375l-21.0 0l0 26.875q0 2.03125 -1.1875 3.265625q-1.171875 1.21875 -3.1875 1.21875zm24.53125 -38.609375q17.171875 0 17.171875 -15.03125q0 -14.828125 -17.171875 -14.828125l-20.15625 0l0 29.859375l20.15625 0zm58.651306 -15.140625q19.515625 0 19.515625 20.46875l0 29.015625q0 1.921875 -1.125 3.09375q-1.109375 1.171875 -3.03125 1.171875q-1.921875 0 -3.09375 -1.171875q-1.171875 -1.171875 -1.171875 -3.09375l0 -5.125q-2.015625 4.59375 -6.1875 7.109375q-4.15625 2.5 -9.59375 2.5q-5.015625 0 -9.234375 -2.03125q-4.203125 -2.03125 -6.65625 -5.65625q-2.453125 -3.625 -2.453125 -8.0q0 -5.859375 2.984375 -9.109375q2.984375 -3.25 9.8125 -4.6875q6.828125 -1.453125 18.984375 -1.453125l2.34375 0l0 -3.515625q0 -6.40625 -2.609375 -9.390625q-2.609375 -2.984375 -8.484375 -2.984375q-7.25 0 -14.71875 3.953125q-2.875 1.8125 -4.046875 1.8125q-1.28125 0 -2.140625 -0.953125q-0.84375 -0.96875 -0.84375 -2.46875q0 -1.484375 0.90625 -2.609375q0.90625 -1.125 2.9375 -2.296875q3.71875 -2.125 8.46875 -3.34375q4.75 -1.234375 9.4375 -1.234375zm-3.515625 47.140625q6.40625 0 10.5 -4.3125q4.109375 -4.328125 4.109375 -11.15625l0 -3.09375l-1.921875 0q-9.375 0 -14.28125 0.8125q-4.90625 0.796875 -7.0 2.65625q-2.078125 1.859375 -2.078125 5.5q0 4.15625 3.046875 6.875q3.046875 2.71875 7.625 2.71875zm5.4375 -52.796875q-0.859375 0.640625 -1.703125 0.640625q-1.078125 0 -1.828125 -0.6875q-0.734375 -0.703125 -0.734375 -1.65625q0 -0.859375 0.640625 -1.609375l12.375 -16.203125q1.921875 -2.453125 4.375 -2.453125q1.703125 0 2.875 1.125q1.171875 1.109375 1.171875 2.8125q0 2.25 -2.140625 4.0625l-15.03125 13.96875zm75.51221 5.859375q2.03125 0 3.203125 1.1875q1.171875 1.171875 1.171875 3.09375l0 45.21875q0 11.625 -5.96875 17.53125q-5.96875 5.921875 -17.703125 5.921875q-11.421875 0 -18.984375 -4.46875q-3.84375 -2.140625 -3.84375 -4.90625q0 -1.5 0.796875 -2.46875q0.796875 -0.953125 2.078125 -0.953125q1.078125 0 3.84375 1.5q3.734375 1.921875 7.359375 3.09375q3.625 1.171875 8.640625 1.171875q7.578125 0 11.40625 -4.0q3.84375 -4.0 3.84375 -11.671875l0 -9.1875q-2.234375 5.015625 -6.875 7.6875q-4.640625 2.671875 -10.9375 2.671875q-6.828125 0 -12.109375 -3.203125q-5.28125 -3.203125 -8.21875 -9.0625q-2.921875 -5.875 -2.921875 -13.546875q0 -7.6875 2.921875 -13.546875q2.9375 -5.875 8.21875 -9.0625q5.28125 -3.203125 12.109375 -3.203125q6.1875 0 10.765625 2.671875q4.59375 2.65625 6.9375 7.5625l0 -5.75q0 -1.921875 1.125 -3.09375q1.125 -1.1875 3.140625 -1.1875zm-20.265625 44.265625q7.46875 0 11.734375 -4.953125q4.265625 -4.96875 4.265625 -13.703125q0 -8.640625 -4.21875 -13.59375q-4.203125 -4.96875 -11.78125 -4.96875q-7.5625 0 -11.890625 4.96875q-4.3125 4.953125 -4.3125 13.59375q0 8.734375 4.3125 13.703125q4.328125 4.953125 11.890625 4.953125zm45.016235 9.28125q-1.921875 0 -3.15625 -1.109375q-1.21875 -1.125 -1.21875 -3.15625l0 -45.0q0 -2.03125 1.21875 -3.15625q1.234375 -1.125 3.15625 -1.125q1.921875 0 3.09375 1.125q1.171875 1.125 1.171875 3.15625l0 45.0q0 2.140625 -1.171875 3.203125q-1.171875 1.0625 -3.09375 1.0625zm0 -64.734375q-2.5625 0 -4.171875 -1.484375q-1.59375 -1.5 -1.59375 -3.953125q0 -2.359375 1.59375 -3.84375q1.609375 -1.5 4.171875 -1.5q2.5625 0 4.15625 1.5q1.609375 1.484375 1.609375 3.84375q0 2.453125 -1.609375 3.953125q-1.59375 1.484375 -4.15625 1.484375zm46.494263 10.984375q18.671875 0 18.671875 20.578125l0 28.90625q0 2.03125 -1.125 3.15625q-1.109375 1.109375 -3.140625 1.109375q-2.03125 0 -3.203125 -1.109375q-1.171875 -1.125 -1.171875 -3.15625l0 -28.375q0 -7.25 -2.828125 -10.546875q-2.828125 -3.3125 -9.015625 -3.3125q-7.140625 0 -11.40625 4.375q-4.265625 4.375 -4.265625 11.84375l0 26.015625q0 2.03125 -1.125 3.15625q-1.109375 1.109375 -3.140625 1.109375q-2.03125 0 -3.203125 -1.109375q-1.171875 -1.125 -1.171875 -3.15625l0 -45.0q0 -1.921875 1.171875 -3.09375q1.171875 -1.1875 3.203125 -1.1875q1.921875 0 3.03125 1.1875q1.125 1.171875 1.125 2.984375l0 5.4375q2.5625 -4.796875 7.140625 -7.296875q4.59375 -2.515625 10.453125 -2.515625zm55.67444 0q19.515625 0 19.515625 20.46875l0 29.015625q0 1.921875 -1.125 3.09375q-1.109375 1.171875 -3.03125 1.171875q-1.921875 0 -3.09375 -1.171875q-1.171875 -1.171875 -1.171875 -3.09375l0 -5.125q-2.015625 4.59375 -6.1875 7.109375q-4.15625 2.5 -9.59375 2.5q-5.015625 0 -9.234375 -2.03125q-4.203125 -2.03125 -6.65625 -5.65625q-2.453125 -3.625 -2.453125 -8.0q0 -5.859375 2.984375 -9.109375q2.984375 -3.25 9.8125 -4.6875q6.828125 -1.453125 18.984375 -1.453125l2.34375 0l0 -3.515625q0 -6.40625 -2.609375 -9.390625q-2.609375 -2.984375 -8.484375 -2.984375q-7.25 0 -14.71875 3.953125q-2.875 1.8125 -4.046875 1.8125q-1.28125 0 -2.140625 -0.953125q-0.84375 -0.96875 -0.84375 -2.46875q0 -1.484375 0.90625 -2.609375q0.90625 -1.125 2.9375 -2.296875q3.71875 -2.125 8.46875 -3.34375q4.75 -1.234375 9.4375 -1.234375zm-3.515625 47.140625q6.40625 0 10.5 -4.3125q4.109375 -4.328125 4.109375 -11.15625l0 -3.09375l-1.921875 0q-9.375 0 -14.28125 0.8125q-4.90625 0.796875 -7.0 2.65625q-2.078125 1.859375 -2.078125 5.5q0 4.15625 3.046875 6.875q3.046875 2.71875 7.625 2.71875zm92.46704 -47.140625q18.671875 0 18.671875 20.578125l0 28.90625q0 2.03125 -1.125 3.15625q-1.109375 1.109375 -3.140625 1.109375q-2.03125 0 -3.203125 -1.109375q-1.171875 -1.125 -1.171875 -3.15625l0 -28.375q0 -7.25 -2.828125 -10.546875q-2.828125 -3.3125 -9.015625 -3.3125q-7.140625 0 -11.40625 4.375q-4.265625 4.375 -4.265625 11.84375l0 26.015625q0 2.03125 -1.125 3.15625q-1.109375 1.109375 -3.140625 1.109375q-2.03125 0 -3.203125 -1.109375q-1.171875 -1.125 -1.171875 -3.15625l0 -45.0q0 -1.921875 1.171875 -3.09375q1.171875 -1.1875 3.203125 -1.1875q1.921875 0 3.03125 1.1875q1.125 1.171875 1.125 2.984375l0 5.4375q2.5625 -4.796875 7.140625 -7.296875q4.59375 -2.515625 10.453125 -2.515625zm55.67456 0q19.515625 0 19.515625 20.46875l0 29.015625q0 1.921875 -1.125 3.09375q-1.109375 1.171875 -3.03125 1.171875q-1.921875 0 -3.09375 -1.171875q-1.171875 -1.171875 -1.171875 -3.09375l0 -5.125q-2.015625 4.59375 -6.1875 7.109375q-4.15625 2.5 -9.59375 2.5q-5.015625 0 -9.234375 -2.03125q-4.203125 -2.03125 -6.65625 -5.65625q-2.453125 -3.625 -2.453125 -8.0q0 -5.859375 2.984375 -9.109375q2.984375 -3.25 9.8125 -4.6875q6.828125 -1.453125 18.984375 -1.453125l2.34375 0l0 -3.515625q0 -6.40625 -2.609375 -9.390625q-2.609375 -2.984375 -8.484375 -2.984375q-7.25 0 -14.71875 3.953125q-2.875 1.8125 -4.046875 1.8125q-1.28125 0 -2.140625 -0.953125q-0.84375 -0.96875 -0.84375 -2.46875q0 -1.484375 0.90625 -2.609375q0.90625 -1.125 2.9375 -2.296875q3.71875 -2.125 8.46875 -3.34375q4.75 -1.234375 9.4375 -1.234375zm-3.515625 47.140625q6.40625 0 10.5 -4.3125q4.109375 -4.328125 4.109375 -11.15625l0 -3.09375l-1.921875 0q-9.375 0 -14.28125 0.8125q-4.90625 0.796875 -7.0 2.65625q-2.078125 1.859375 -2.078125 5.5q0 4.15625 3.046875 6.875q3.046875 2.71875 7.625 2.71875zm11.09375 -56.84375q-2.03125 0 -3.953125 -0.953125q-1.921875 -0.96875 -4.578125 -2.78125q-2.359375 -1.5 -3.75 -2.1875q-1.375 -0.703125 -2.546875 -0.703125q-1.8125 0 -2.828125 0.96875q-1.015625 0.953125 -1.96875 2.671875q-0.75 1.171875 -1.28125 1.765625q-0.53125 0.578125 -1.28125 0.578125q-0.953125 0 -1.59375 -0.75q-0.640625 -0.75 -0.640625 -1.921875q0 -1.921875 1.171875 -4.265625q1.171875 -2.34375 3.296875 -4.046875q2.140625 -1.71875 4.796875 -1.71875q2.03125 0 3.953125 0.96875q1.921875 0.953125 4.59375 2.765625q2.34375 1.5 3.71875 2.203125q1.390625 0.6875 2.5625 0.6875q1.703125 0 2.71875 -0.953125q1.015625 -0.96875 2.078125 -2.671875q0.75 -1.28125 1.28125 -1.859375q0.53125 -0.59375 1.28125 -0.59375q0.96875 0 1.609375 0.796875q0.640625 0.796875 0.640625 1.96875q0 1.8125 -1.1875 4.21875q-1.171875 2.390625 -3.3125 4.109375q-2.125 1.703125 -4.78125 1.703125zm49.277832 63.671875q-7.359375 0 -12.96875 -3.296875q-5.59375 -3.3125 -8.640625 -9.4375q-3.03125 -6.140625 -3.03125 -14.25q0 -8.109375 3.03125 -14.234375q3.046875 -6.140625 8.640625 -9.4375q5.609375 -3.3125 12.96875 -3.3125q7.359375 0 13.0 3.3125q5.65625 3.296875 8.6875 9.4375q3.046875 6.125 3.046875 14.234375q0 8.109375 -3.046875 14.25q-3.03125 6.125 -8.6875 9.4375q-5.640625 3.296875 -13.0 3.296875zm0 -7.15625q7.671875 0 11.78125 -5.0625q4.109375 -5.0625 4.109375 -14.765625q0 -9.5 -4.171875 -14.671875q-4.15625 -5.171875 -11.71875 -5.171875q-7.578125 0 -11.734375 5.171875q-4.15625 5.171875 -4.15625 14.671875q0 9.59375 4.09375 14.71875q4.109375 5.109375 11.796875 5.109375zm105.36792 -5.640625q1.171875 0 2.03125 0.96875q0.859375 0.953125 0.859375 2.4375q0 2.671875 -3.734375 4.90625q-3.84375 2.234375 -8.109375 3.359375q-4.265625 1.125 -8.3125 1.125q-12.0625 0 -19.046875 -7.140625q-6.984375 -7.15625 -6.984375 -19.734375q0 -8.0 3.09375 -14.125q3.09375 -6.140625 8.6875 -9.546875q5.609375 -3.421875 12.75 -3.421875q10.125 0 16.09375 6.609375q5.984375 6.609375 5.984375 17.921875q0 2.125 -0.859375 3.09375q-0.84375 0.953125 -2.765625 0.953125l-34.34375 0q0.953125 18.34375 17.390625 18.34375q4.15625 0 7.140625 -1.109375q2.984375 -1.125 6.390625 -3.046875q2.78125 -1.59375 3.734375 -1.59375zm-18.65625 -34.453125q-6.828125 0 -10.9375 4.265625q-4.109375 4.265625 -4.84375 12.046875l30.171875 0q-0.203125 -7.890625 -3.9375 -12.09375q-3.734375 -4.21875 -10.453125 -4.21875zm60.78601 -6.71875q18.671875 0 18.671875 20.578125l0 28.90625q0 2.03125 -1.125 3.15625q-1.109375 1.109375 -3.140625 1.109375q-2.03125 0 -3.203125 -1.109375q-1.171875 -1.125 -1.171875 -3.15625l0 -28.375q0 -7.25 -2.828125 -10.546875q-2.828125 -3.3125 -9.015625 -3.3125q-7.140625 0 -11.40625 4.375q-4.265625 4.375 -4.265625 11.84375l0 26.015625q0 2.03125 -1.125 3.15625q-1.109375 1.109375 -3.140625 1.109375q-2.03125 0 -3.203125 -1.109375q-1.171875 -1.125 -1.171875 -3.15625l0 -45.0q0 -1.921875 1.171875 -3.09375q1.171875 -1.1875 3.203125 -1.1875q1.921875 0 3.03125 1.1875q1.125 1.171875 1.125 2.984375l0 5.4375q2.5625 -4.796875 7.140625 -7.296875q4.59375 -2.515625 10.453125 -2.515625zm55.89331 53.96875q-7.25 0 -12.859375 -3.296875q-5.59375 -3.3125 -8.640625 -9.390625q-3.03125 -6.09375 -3.03125 -14.09375q0 -7.984375 3.140625 -14.171875q3.15625 -6.1875 8.796875 -9.59375q5.65625 -3.421875 13.015625 -3.421875q4.0625 0 8.0625 1.125q4.0 1.109375 6.984375 3.25q1.921875 1.28125 2.71875 2.515625q0.796875 1.21875 0.796875 2.703125q0 1.5 -0.796875 2.46875q-0.796875 0.953125 -2.078125 0.953125q-0.75 0 -1.609375 -0.421875q-0.84375 -0.4375 -1.4375 -0.859375q-0.578125 -0.4375 -0.796875 -0.53125q-2.78125 -1.8125 -5.28125 -2.875q-2.5 -1.078125 -6.125 -1.078125q-7.796875 0 -12.125 5.28125q-4.3125 5.28125 -4.3125 14.65625q0 9.390625 4.3125 14.515625q4.328125 5.109375 12.125 5.109375q3.625 0 6.234375 -1.0625q2.609375 -1.0625 5.28125 -2.875q1.171875 -0.75 2.234375 -1.28125q1.0625 -0.53125 1.8125 -0.53125q1.171875 0 1.96875 0.96875q0.8125 0.953125 0.8125 2.4375q0 1.390625 -0.75 2.515625q-0.75 1.109375 -2.78125 2.5q-2.984375 2.03125 -7.203125 3.265625q-4.203125 1.21875 -8.46875 1.21875zm51.197754 0q-7.359375 0 -12.96875 -3.296875q-5.59375 -3.3125 -8.640625 -9.4375q-3.03125 -6.140625 -3.03125 -14.25q0 -8.109375 3.03125 -14.234375q3.046875 -6.140625 8.640625 -9.4375q5.609375 -3.3125 12.96875 -3.3125q7.359375 0 13.0 3.3125q5.65625 3.296875 8.6875 9.4375q3.046875 6.125 3.046875 14.234375q0 8.109375 -3.046875 14.25q-3.03125 6.125 -8.6875 9.4375q-5.640625 3.296875 -13.0 3.296875zm0 -7.15625q7.671875 0 11.78125 -5.0625q4.109375 -5.0625 4.109375 -14.765625q0 -9.5 -4.171875 -14.671875q-4.15625 -5.171875 -11.71875 -5.171875q-7.578125 0 -11.734375 5.171875q-4.15625 5.171875 -4.15625 14.671875q0 9.59375 4.09375 14.71875q4.109375 5.109375 11.796875 5.109375zm63.77234 -46.8125q18.671875 0 18.671875 20.578125l0 28.90625q0 2.03125 -1.125 3.15625q-1.109375 1.109375 -3.140625 1.109375q-2.03125 0 -3.203125 -1.109375q-1.171875 -1.125 -1.171875 -3.15625l0 -28.375q0 -7.25 -2.828125 -10.546875q-2.828125 -3.3125 -9.015625 -3.3125q-7.140625 0 -11.40625 4.375q-4.265625 4.375 -4.265625 11.84375l0 26.015625q0 2.03125 -1.125 3.15625q-1.109375 1.109375 -3.140625 1.109375q-2.03125 0 -3.203125 -1.109375q-1.171875 -1.125 -1.171875 -3.15625l0 -45.0q0 -1.921875 1.171875 -3.09375q1.171875 -1.1875 3.203125 -1.1875q1.921875 0 3.03125 1.1875q1.125 1.171875 1.125 2.984375l0 5.4375q2.5625 -4.796875 7.140625 -7.296875q4.59375 -2.515625 10.453125 -2.515625zm58.45581 46.921875q3.734375 0.328125 3.734375 3.421875q0 1.8125 -1.34375 2.71875q-1.328125 0.90625 -4.0 0.6875l-2.875 -0.21875q-8.53125 -0.625 -12.59375 -5.109375q-4.046875 -4.484375 -4.046875 -13.546875l0 -26.765625l-7.140625 0q-1.8125 0 -2.828125 -0.90625q-1.015625 -0.90625 -1.015625 -2.40625q0 -1.59375 1.015625 -2.546875q1.015625 -0.96875 2.828125 -0.96875l7.140625 0l0 -12.0625q0 -2.015625 1.171875 -3.140625q1.171875 -1.125 3.203125 -1.125q1.921875 0 3.09375 1.125q1.171875 1.125 1.171875 3.140625l0 12.0625l11.84375 0q1.703125 0 2.71875 0.96875q1.015625 0.953125 1.015625 2.546875q0 1.5 -1.015625 2.40625q-1.015625 0.90625 -2.71875 0.90625l-11.84375 0l0 27.1875q0 5.875 2.390625 8.484375q2.40625 2.609375 7.203125 2.9375l2.890625 0.203125zm37.96631 -46.71875q4.484375 -0.3125 4.484375 3.640625q0 1.703125 -0.96875 2.71875q-0.953125 1.0 -3.296875 1.21875l-3.203125 0.328125q-7.140625 0.640625 -10.609375 5.0625q-3.46875 4.421875 -3.46875 10.390625l0 25.921875q0 2.140625 -1.171875 3.203125q-1.171875 1.0625 -3.09375 1.0625q-1.921875 0 -3.15625 -1.109375q-1.21875 -1.125 -1.21875 -3.15625l0 -45.0q0 -2.03125 1.28125 -3.15625q1.28125 -1.125 3.09375 -1.125q1.703125 0 2.875 1.125q1.171875 1.125 1.171875 3.046875l0 5.96875q2.25 -4.6875 6.34375 -7.140625q4.109375 -2.453125 9.4375 -2.890625l1.5 -0.109375zm32.738647 -0.203125q19.515625 0 19.515625 20.46875l0 29.015625q0 1.921875 -1.125 3.09375q-1.109375 1.171875 -3.03125 1.171875q-1.921875 0 -3.09375 -1.171875q-1.171875 -1.171875 -1.171875 -3.09375l0 -5.125q-2.015625 4.59375 -6.1875 7.109375q-4.15625 2.5 -9.59375 2.5q-5.015625 0 -9.234375 -2.03125q-4.203125 -2.03125 -6.65625 -5.65625q-2.453125 -3.625 -2.453125 -8.0q0 -5.859375 2.984375 -9.109375q2.984375 -3.25 9.8125 -4.6875q6.828125 -1.453125 18.984375 -1.453125l2.34375 0l0 -3.515625q0 -6.40625 -2.609375 -9.390625q-2.609375 -2.984375 -8.484375 -2.984375q-7.25 0 -14.71875 3.953125q-2.875 1.8125 -4.046875 1.8125q-1.28125 0 -2.140625 -0.953125q-0.84375 -0.96875 -0.84375 -2.46875q0 -1.484375 0.90625 -2.609375q0.90625 -1.125 2.9375 -2.296875q3.71875 -2.125 8.46875 -3.34375q4.75 -1.234375 9.4375 -1.234375zm-3.515625 47.140625q6.40625 0 10.5 -4.3125q4.109375 -4.328125 4.109375 -11.15625l0 -3.09375l-1.921875 0q-9.375 0 -14.28125 0.8125q-4.90625 0.796875 -7.0 2.65625q-2.078125 1.859375 -2.078125 5.5q0 4.15625 3.046875 6.875q3.046875 2.71875 7.625 2.71875zm80.52783 -69.640625q2.03125 0 3.203125 1.171875q1.171875 1.171875 1.171875 2.984375l0 67.828125q0 1.921875 -1.171875 3.09375q-1.171875 1.171875 -3.203125 1.171875q-2.03125 0 -3.15625 -1.171875q-1.109375 -1.171875 -1.109375 -3.09375l0 -5.765625q-2.34375 4.90625 -6.890625 7.578125q-4.53125 2.671875 -10.609375 2.671875q-6.8125 0 -12.046875 -3.40625q-5.21875 -3.421875 -8.109375 -9.546875q-2.875 -6.140625 -2.875 -14.25q0 -8.0 2.875 -14.078125q2.890625 -6.078125 8.109375 -9.375q5.234375 -3.3125 12.046875 -3.3125q6.078125 0 10.609375 2.671875q4.546875 2.65625 6.890625 7.5625l0 -28.578125q0 -1.921875 1.109375 -3.03125q1.125 -1.125 3.15625 -1.125zm-20.046875 69.3125q7.5625 0 11.671875 -5.171875q4.109375 -5.171875 4.109375 -14.65625q0 -9.5 -4.109375 -14.609375q-4.109375 -5.125 -11.671875 -5.125q-7.578125 0 -11.796875 5.125q-4.203125 5.109375 -4.203125 14.390625q0 9.5 4.203125 14.78125q4.21875 5.265625 11.796875 5.265625zm61.636475 -46.8125q19.515625 0 19.515625 20.46875l0 29.015625q0 1.921875 -1.125 3.09375q-1.109375 1.171875 -3.03125 1.171875q-1.921875 0 -3.09375 -1.171875q-1.171875 -1.171875 -1.171875 -3.09375l0 -5.125q-2.015625 4.59375 -6.1875 7.109375q-4.15625 2.5 -9.59375 2.5q-5.015625 0 -9.234375 -2.03125q-4.203125 -2.03125 -6.65625 -5.65625q-2.453125 -3.625 -2.453125 -8.0q0 -5.859375 2.984375 -9.109375q2.984375 -3.25 9.8125 -4.6875q6.828125 -1.453125 18.984375 -1.453125l2.34375 0l0 -3.515625q0 -6.40625 -2.609375 -9.390625q-2.609375 -2.984375 -8.484375 -2.984375q-7.25 0 -14.71875 3.953125q-2.875 1.8125 -4.046875 1.8125q-1.28125 0 -2.140625 -0.953125q-0.84375 -0.96875 -0.84375 -2.46875q0 -1.484375 0.90625 -2.609375q0.90625 -1.125 2.9375 -2.296875q3.71875 -2.125 8.46875 -3.34375q4.75 -1.234375 9.4375 -1.234375zm-3.515625 47.140625q6.40625 0 10.5 -4.3125q4.109375 -4.328125 4.109375 -11.15625l0 -3.09375l-1.921875 0q-9.375 0 -14.28125 0.8125q-4.90625 0.796875 -7.0 2.65625q-2.078125 1.859375 -2.078125 5.5q0 4.15625 3.046875 6.875q3.046875 2.71875 7.625 2.71875zm43.090332 6.609375q-2.5625 0 -4.265625 -1.640625q-1.703125 -1.65625 -1.703125 -4.328125q0 -2.671875 1.703125 -4.375q1.703125 -1.703125 4.265625 -1.703125q2.453125 0 4.109375 1.703125q1.65625 1.703125 1.65625 4.375q0 2.671875 -1.65625 4.328125q-1.65625 1.640625 -4.109375 1.640625z" fill-rule="nonzero"/></g></svg>