<svg version="1.1" viewBox="0.0 0.0 2179.721784776903 1191.6246719160106" fill="none" stroke="none" stroke-linecap="square" stroke-miterlimit="10" xmlns:xlink="http://www.w3.org/1999/xlink" xmlns="http://www.w3.org/2000/svg"><clipPath id="p.0"><path d="m0 0l2179.7217 0l0 1191.6246l-2179.7217 0l0 -1191.6246z" clip-rule="nonzero"/></clipPath><g clip-path="url(#p.0)"><path fill="#000000" fill-opacity="0.0" d="m0 0l2179.7217 0l0 1191.6246l-2179.7217 0z" fill-rule="evenodd"/><path fill="#000000" fill-opacity="0.0" d="m936.31494 190.08398l1632.4409 0l0 414.6457l-1632.4409 0z" fill-rule="evenodd"/><path fill="#b7b7b7" d="m976.51807 456.4121q-2.671875 0 -4.140625 -1.59375q-1.46875 -1.59375 -1.46875 -4.53125l0 -177.32812q0 -2.40625 2.0 -4.140625q2.0 -1.734375 4.671875 -1.734375l61.0625 0q29.0625 0 45.0625 13.875q16.0 13.859375 16.0 39.46875q0 25.59375 -16.140625 39.734375q-16.125 14.125 -44.921875 14.125l-56.796875 0l0 76.0q0 2.9375 -1.34375 4.53125q-1.328125 1.59375 -3.984375 1.59375zm61.859375 -92.796875q24.796875 0 37.1875 -10.921875q12.40625 -10.9375 12.40625 -32.265625q0 -21.34375 -12.40625 -32.140625q-12.390625 -10.796875 -37.1875 -10.796875l-56.53125 0l0 86.125l56.53125 0zm143.19958 93.328125q-17.078125 0 -30.140625 -8.265625q-13.0625 -8.265625 -20.265625 -23.453125q-7.203125 -15.203125 -7.203125 -35.46875q0 -20.0 7.203125 -35.203125q7.203125 -15.203125 20.265625 -23.46875q13.0625 -8.265625 30.140625 -8.265625q17.0625 0 30.125 8.265625q13.0625 8.265625 20.265625 23.46875q7.203125 15.203125 7.203125 35.203125q0 20.265625 -7.203125 35.46875q-7.203125 15.1875 -20.265625 23.453125q-13.0625 8.265625 -30.125 8.265625zm-0.265625 -10.921875q22.125 0 33.984375 -14.53125q11.875 -14.53125 11.875 -41.734375q0 -26.40625 -12.140625 -41.203125q-12.125 -14.796875 -33.453125 -14.796875q-21.34375 0 -33.484375 14.796875q-12.125 14.796875 -12.125 41.203125q0 27.203125 11.859375 41.734375q11.875 14.53125 33.484375 14.53125zm99.990234 10.390625q-2.671875 0 -4.140625 -1.59375q-1.453125 -1.59375 -1.453125 -4.53125l0 -121.0625q0 -2.671875 1.453125 -4.265625q1.46875 -1.609375 4.140625 -1.609375q2.671875 0 4.125 1.609375q1.46875 1.59375 1.46875 4.265625l0 121.0625q0 2.9375 -1.46875 4.53125q-1.453125 1.59375 -4.125 1.59375zm0 -165.0625q-4.0 0 -6.9375 -2.65625q-2.921875 -2.671875 -2.921875 -6.9375q0 -4.53125 2.796875 -7.1875q2.796875 -2.671875 7.0625 -2.671875q4.265625 0 7.0625 2.671875q2.8125 2.65625 2.8125 7.1875q0 4.265625 -2.9375 6.9375q-2.9375 2.65625 -6.9375 2.65625zm91.203 165.59375q-10.40625 0 -20.8125 -3.0625q-10.390625 -3.0625 -18.65625 -8.390625q-5.34375 -3.46875 -7.203125 -5.734375q-1.859375 -2.265625 -1.859375 -5.203125q0 -1.875 1.328125 -3.328125q1.328125 -1.46875 3.203125 -1.46875q1.328125 0 3.59375 1.46875q2.265625 1.453125 3.0625 2.0q7.734375 5.59375 16.125 9.203125q8.40625 3.59375 21.21875 3.59375q17.328125 0 26.65625 -6.390625q9.328125 -6.40625 9.328125 -18.140625q0 -6.9375 -3.328125 -11.46875q-3.328125 -4.53125 -10.9375 -7.859375q-7.59375 -3.34375 -21.71875 -6.546875q-23.46875 -5.328125 -33.609375 -13.59375q-10.125 -8.265625 -10.125 -21.859375q0 -16.546875 12.921875 -26.9375q12.9375 -10.40625 33.46875 -10.40625q9.875 0 18.9375 2.671875q9.0625 2.671875 16.0 7.46875q5.0625 3.734375 7.328125 6.53125q2.265625 2.796875 2.265625 5.734375q0 1.859375 -1.328125 3.328125q-1.328125 1.46875 -3.203125 1.46875q-2.125 0 -6.9375 -4.0q-6.921875 -5.328125 -14.53125 -8.796875q-7.59375 -3.46875 -19.0625 -3.46875q-14.9375 0 -24.140625 7.0625q-9.1875 7.0625 -9.1875 18.53125q0 6.9375 2.921875 11.34375q2.9375 4.390625 10.0 7.59375q7.078125 3.203125 20.140625 6.140625q18.40625 4.53125 28.265625 9.203125q9.859375 4.65625 14.0 11.1875q4.140625 6.53125 4.140625 16.671875q0 16.0 -13.203125 25.734375q-13.203125 9.71875 -35.0625 9.71875zm250.1195 -27.1875q1.859375 0 3.1875 1.46875q1.34375 1.453125 1.34375 3.328125q0 2.671875 -2.0 5.203125q-2.0 2.53125 -7.0625 5.734375q-19.203125 11.453125 -39.734375 11.453125q-29.0625 0 -45.734375 -17.859375q-16.671875 -17.859375 -16.671875 -49.0625q0 -20.0 7.46875 -35.203125q7.46875 -15.203125 21.0625 -23.59375q13.609375 -8.40625 31.203125 -8.40625q24.53125 0 38.65625 16.0q14.140625 16.0 14.140625 43.734375q0 4.796875 -1.875 6.9375q-1.859375 2.125 -6.65625 2.125l-91.734375 0q0.28125 26.140625 13.203125 40.28125q12.9375 14.125 36.40625 14.125q12.796875 0 21.1875 -3.46875q8.40625 -3.46875 16.40625 -9.0625q5.59375 -3.734375 7.203125 -3.734375zm-46.9375 -96.53125q-20.265625 0 -32.671875 12.671875q-12.390625 12.65625 -14.515625 35.328125l89.328125 0q-0.53125 -23.203125 -11.46875 -35.59375q-10.9375 -12.40625 -30.671875 -12.40625zm2.9375 -24.53125q-1.34375 1.328125 -2.9375 1.328125q-1.328125 0 -2.53125 -1.0625q-1.203125 -1.0625 -1.203125 -2.671875q0 -1.328125 1.0625 -2.390625l35.46875 -45.609375q3.203125 -4.796875 8.0 -4.796875q2.671875 0 4.53125 1.875q1.875 1.859375 1.875 4.796875q0 4.0 -3.734375 7.734375l-40.53125 40.796875zm91.46228 147.71875q-4.53125 0 -7.46875 -2.921875q-2.9375 -2.9375 -2.9375 -7.734375q0 -4.796875 2.9375 -7.734375q2.9375 -2.9375 7.46875 -2.9375q4.265625 0 7.203125 2.9375q2.9375 2.9375 2.9375 7.734375q0 4.796875 -2.9375 7.734375q-2.9375 2.921875 -7.203125 2.921875zm56.531128 0q-4.53125 0 -7.46875 -2.921875q-2.9375 -2.9375 -2.9375 -7.734375q0 -4.796875 2.9375 -7.734375q2.9375 -2.9375 7.46875 -2.9375q4.265625 0 7.203125 2.9375q2.9375 2.9375 2.9375 7.734375q0 4.796875 -2.9375 7.734375q-2.9375 2.921875 -7.203125 2.921875zm56.531128 0q-4.53125 0 -7.46875 -2.921875q-2.9375 -2.9375 -2.9375 -7.734375q0 -4.796875 2.9375 -7.734375q2.9375 -2.9375 7.46875 -2.9375q4.265625 0 7.203125 2.9375q2.9375 2.9375 2.9375 7.734375q0 4.796875 -2.9375 7.734375q-2.9375 2.921875 -7.203125 2.921875z" fill-rule="nonzero"/><path fill="#000000" fill-opacity="0.0" d="m951.2598 567.3753l1165.512 0l0 294.33075l-1165.512 0z" fill-rule="evenodd"/><path fill="#b7b7b7" d="m1001.0098 679.6347q-10.453125 0 -18.1875 -4.6875q-7.734375 -4.703125 -11.90625 -13.34375q-4.15625 -8.640625 -4.15625 -20.375q0 -11.828125 4.109375 -20.515625q4.109375 -8.703125 11.84375 -13.34375q7.734375 -4.640625 18.296875 -4.640625q10.546875 0 18.28125 4.640625q7.734436 4.640625 11.843811 13.34375q4.109375 8.6875 4.109375 20.40625q0 11.734375 -4.171875 20.4375q-4.15625 8.6875 -11.890686 13.390625q-7.734375 4.6875 -18.171875 4.6875zm0 -7.46875q11.9375 0 18.59375 -8.046875q6.671936 -8.0625 6.671936 -23.0q0 -14.921875 -6.609436 -22.921875q-6.609375 -8.0 -18.65625 -8.0q-11.953125 0 -18.625 8.0625q-6.65625 8.046875 -6.65625 22.859375q0 14.828125 6.65625 22.9375q6.671875 8.109375 18.625 8.109375zm70.17291 7.359375q-7.25 0 -12.859375 -3.296875q-5.59375 -3.3125 -8.640625 -9.390625q-3.03125 -6.09375 -3.03125 -14.09375q0 -7.984375 3.140625 -14.171875q3.15625 -6.1875 8.796875 -9.59375q5.65625 -3.421875 13.015625 -3.421875q4.0625 0 8.0625 1.125q4.0 1.109375 6.984375 3.25q1.921875 1.28125 2.71875 2.515625q0.796875 1.21875 0.796875 2.703125q0 1.5 -0.796875 2.46875q-0.796875 0.953125 -2.078125 0.953125q-0.75 0 -1.609375 -0.421875q-0.84375 -0.4375 -1.4375 -0.859375q-0.578125 -0.4375 -0.796875 -0.53125q-2.78125 -1.8125 -5.28125 -2.875q-2.5 -1.078125 -6.125 -1.078125q-7.796875 0 -12.125 5.28125q-4.3125 5.28125 -4.3125 14.65625q0 9.390625 4.3125 14.515625q4.328125 5.109375 12.125 5.109375q3.625 0 6.234375 -1.0625q2.609375 -1.0625 5.28125 -2.875q1.171875 -0.75 2.234375 -1.28125q1.0625 -0.53125 1.8125 -0.53125q1.171875 0 1.96875 0.96875q0.8125 0.953125 0.8125 2.4375q0 1.390625 -0.75 2.515625q-0.75 1.109375 -2.78125 2.5q-2.984375 2.03125 -7.203125 3.265625q-4.203125 1.21875 -8.46875 1.21875zm51.197754 0q-7.359375 0 -12.96875 -3.296875q-5.59375 -3.3125 -8.640625 -9.4375q-3.03125 -6.140625 -3.03125 -14.25q0 -8.109375 3.03125 -14.234375q3.046875 -6.140625 8.640625 -9.4375q5.609375 -3.3125 12.96875 -3.3125q7.359375 0 13.0 3.3125q5.65625 3.296875 8.6875 9.4375q3.046875 6.125 3.046875 14.234375q0 8.109375 -3.046875 14.25q-3.03125 6.125 -8.6875 9.4375q-5.640625 3.296875 -13.0 3.296875zm0 -7.15625q7.671875 0 11.78125 -5.0625q4.109375 -5.0625 4.109375 -14.765625q0 -9.5 -4.171875 -14.671875q-4.15625 -5.171875 -11.71875 -5.171875q-7.578125 0 -11.734375 5.171875q-4.15625 5.171875 -4.15625 14.671875q0 9.59375 4.09375 14.71875q4.109375 5.109375 11.796875 5.109375zm63.350586 -46.609375q4.484375 -0.3125 4.484375 3.640625q0 1.703125 -0.96875 2.71875q-0.953125 1.0 -3.296875 1.21875l-3.203125 0.328125q-7.140625 0.640625 -10.609375 5.0625q-3.46875 4.421875 -3.46875 10.390625l0 25.921875q0 2.140625 -1.171875 3.203125q-1.171875 1.0625 -3.09375 1.0625q-1.921875 0 -3.15625 -1.109375q-1.21875 -1.125 -1.21875 -3.15625l0 -45.0q0 -2.03125 1.28125 -3.15625q1.28125 -1.125 3.09375 -1.125q1.703125 0 2.875 1.125q1.171875 1.125 1.171875 3.046875l0 5.96875q2.25 -4.6875 6.34375 -7.140625q4.109375 -2.453125 9.4375 -2.890625l1.5 -0.109375zm37.64966 0q4.484375 -0.3125 4.484375 3.640625q0 1.703125 -0.96875 2.71875q-0.953125 1.0 -3.296875 1.21875l-3.203125 0.328125q-7.140625 0.640625 -10.609375 5.0625q-3.46875 4.421875 -3.46875 10.390625l0 25.921875q0 2.140625 -1.171875 3.203125q-1.171875 1.0625 -3.09375 1.0625q-1.921875 0 -3.15625 -1.109375q-1.21875 -1.125 -1.21875 -3.15625l0 -45.0q0 -2.03125 1.28125 -3.15625q1.28125 -1.125 3.09375 -1.125q1.703125 0 2.875 1.125q1.171875 1.125 1.171875 3.046875l0 5.96875q2.25 -4.6875 6.34375 -7.140625q4.109375 -2.453125 9.4375 -2.890625l1.5 -0.109375zm51.083008 40.96875q1.171875 0 2.03125 0.96875q0.859375 0.953125 0.859375 2.4375q0 2.671875 -3.734375 4.90625q-3.84375 2.234375 -8.109375 3.359375q-4.265625 1.125 -8.3125 1.125q-12.0625 0 -19.046875 -7.140625q-6.984375 -7.15625 -6.984375 -19.734375q0 -8.0 3.09375 -14.125q3.09375 -6.140625 8.6875 -9.546875q5.609375 -3.421875 12.75 -3.421875q10.125 0 16.09375 6.609375q5.984375 6.609375 5.984375 17.921875q0 2.125 -0.859375 3.09375q-0.84375 0.953125 -2.765625 0.953125l-34.34375 0q0.953125 18.34375 17.390625 18.34375q4.15625 0 7.140625 -1.109375q2.984375 -1.125 6.390625 -3.046875q2.78125 -1.59375 3.734375 -1.59375zm-18.65625 -34.453125q-6.828125 0 -10.9375 4.265625q-4.109375 4.265625 -4.84375 12.046875l30.171875 0q-0.203125 -7.890625 -3.9375 -12.09375q-3.734375 -4.21875 -10.453125 -4.21875zm74.12976 -6.515625q2.015625 0 3.140625 1.1875q1.125 1.171875 1.125 3.09375l0 45.109375q0 1.8125 -1.125 2.984375q-1.125 1.171875 -3.140625 1.171875q-1.921875 0 -3.046875 -1.109375q-1.125 -1.125 -1.125 -2.9375l0 -5.34375q-2.453125 4.703125 -6.875 7.15625q-4.421875 2.453125 -9.96875 2.453125q-9.28125 0 -13.984375 -5.171875q-4.6875 -5.171875 -4.6875 -15.3125l0 -29.0q0 -1.921875 1.171875 -3.09375q1.171875 -1.1875 3.203125 -1.1875q2.03125 0 3.140625 1.1875q1.125 1.171875 1.125 3.09375l0 28.796875q0 6.921875 2.765625 10.1875q2.78125 3.25 8.75 3.25q6.828125 0 10.984375 -4.421875q4.171875 -4.4375 4.171875 -11.6875l0 -26.125q0 -1.921875 1.171875 -3.09375q1.171875 -1.1875 3.203125 -1.1875zm69.10144 -0.203125q19.515625 0 19.515625 20.46875l0 29.015625q0 1.921875 -1.125 3.09375q-1.109375 1.171875 -3.03125 1.171875q-1.921875 0 -3.09375 -1.171875q-1.171875 -1.171875 -1.171875 -3.09375l0 -5.125q-2.015625 4.59375 -6.1875 7.109375q-4.15625 2.5 -9.59375 2.5q-5.015625 0 -9.234375 -2.03125q-4.203125 -2.03125 -6.65625 -5.65625q-2.453125 -3.625 -2.453125 -8.0q0 -5.859375 2.984375 -9.109375q2.984375 -3.25 9.8125 -4.6875q6.828125 -1.453125 18.984375 -1.453125l2.34375 0l0 -3.515625q0 -6.40625 -2.609375 -9.390625q-2.609375 -2.984375 -8.484375 -2.984375q-7.25 0 -14.71875 3.953125q-2.875 1.8125 -4.046875 1.8125q-1.28125 0 -2.140625 -0.953125q-0.84375 -0.96875 -0.84375 -2.46875q0 -1.484375 0.90625 -2.609375q0.90625 -1.125 2.9375 -2.296875q3.71875 -2.125 8.46875 -3.34375q4.75 -1.234375 9.4375 -1.234375zm-3.515625 47.140625q6.40625 0 10.5 -4.3125q4.109375 -4.328125 4.109375 -11.15625l0 -3.09375l-1.921875 0q-9.375 0 -14.28125 0.8125q-4.90625 0.796875 -7.0 2.65625q-2.078125 1.859375 -2.078125 5.5q0 4.15625 3.046875 6.875q3.046875 2.71875 7.625 2.71875zm43.19983 6.609375q-1.921875 0 -3.15625 -1.109375q-1.21875 -1.125 -1.21875 -3.15625l0 -67.71875q0 -2.03125 1.21875 -3.140625q1.234375 -1.125 3.15625 -1.125q1.8125 0 3.03125 1.125q1.234375 1.109375 1.234375 3.140625l0 67.71875q0 2.03125 -1.234375 3.15625q-1.21875 1.109375 -3.03125 1.109375zm62.494263 -53.546875q2.03125 0 3.203125 1.1875q1.171875 1.171875 1.171875 3.09375l0 45.21875q0 11.625 -5.96875 17.53125q-5.96875 5.921875 -17.703125 5.921875q-11.421875 0 -18.984375 -4.46875q-3.84375 -2.140625 -3.84375 -4.90625q0 -1.5 0.796875 -2.46875q0.796875 -0.953125 2.078125 -0.953125q1.078125 0 3.84375 1.5q3.734375 1.921875 7.359375 3.09375q3.625 1.171875 8.640625 1.171875q7.578125 0 11.40625 -4.0q3.84375 -4.0 3.84375 -11.671875l0 -9.1875q-2.234375 5.015625 -6.875 7.6875q-4.640625 2.671875 -10.9375 2.671875q-6.828125 0 -12.109375 -3.203125q-5.28125 -3.203125 -8.21875 -9.0625q-2.921875 -5.875 -2.921875 -13.546875q0 -7.6875 2.921875 -13.546875q2.9375 -5.875 8.21875 -9.0625q5.28125 -3.203125 12.109375 -3.203125q6.1875 0 10.765625 2.671875q4.59375 2.65625 6.9375 7.5625l0 -5.75q0 -1.921875 1.125 -3.09375q1.125 -1.1875 3.140625 -1.1875zm-20.265625 44.265625q7.46875 0 11.734375 -4.953125q4.265625 -4.96875 4.265625 -13.703125q0 -8.640625 -4.21875 -13.59375q-4.203125 -4.96875 -11.78125 -4.96875q-7.5625 0 -11.890625 4.96875q-4.3125 4.953125 -4.3125 13.59375q0 8.734375 4.3125 13.703125q4.328125 4.953125 11.890625 4.953125zm62.18811 9.5q-7.359375 0 -12.96875 -3.296875q-5.59375 -3.3125 -8.640625 -9.4375q-3.03125 -6.140625 -3.03125 -14.25q0 -8.109375 3.03125 -14.234375q3.046875 -6.140625 8.640625 -9.4375q5.609375 -3.3125 12.96875 -3.3125q7.359375 0 13.0 3.3125q5.65625 3.296875 8.6875 9.4375q3.046875 6.125 3.046875 14.234375q0 8.109375 -3.046875 14.25q-3.03125 6.125 -8.6875 9.4375q-5.640625 3.296875 -13.0 3.296875zm0 -7.15625q7.671875 0 11.78125 -5.0625q4.109375 -5.0625 4.109375 -14.765625q0 -9.5 -4.171875 -14.671875q-4.15625 -5.171875 -11.71875 -5.171875q-7.578125 0 -11.734375 5.171875q-4.15625 5.171875 -4.15625 14.671875q0 9.59375 4.09375 14.71875q4.109375 5.109375 11.796875 5.109375z" fill-rule="nonzero"/><path fill="#b7b7b7" d="m972.6348 807.3066q-1.921875 0 -3.15625 -1.109375q-1.21875 -1.125 -1.21875 -3.15625l0 -45.0q0 -2.03125 1.21875 -3.15625q1.234375 -1.125 3.15625 -1.125q1.921875 0 3.09375 1.125q1.171875 1.125 1.171875 3.15625l0 45.0q0 2.140625 -1.171875 3.203125q-1.171875 1.0625 -3.09375 1.0625zm0 -64.734375q-2.5625 0 -4.171875 -1.484375q-1.59375 -1.5 -1.59375 -3.953125q0 -2.359375 1.59375 -3.84375q1.609375 -1.5 4.171875 -1.5q2.5625 0 4.15625 1.5q1.609375 1.484375 1.609375 3.84375q0 2.453125 -1.609375 3.953125q-1.59375 1.484375 -4.15625 1.484375zm46.494263 10.984375q18.671936 0 18.671936 20.578125l0 28.90625q0 2.03125 -1.125 3.15625q-1.109375 1.109375 -3.140625 1.109375q-2.03125 0 -3.203125 -1.109375q-1.171875 -1.125 -1.171875 -3.15625l0 -28.375q0 -7.25 -2.828125 -10.546875q-2.828186 -3.3125 -9.015686 -3.3125q-7.140625 0 -11.40625 4.375q-4.265625 4.375 -4.265625 11.84375l0 26.015625q0 2.03125 -1.125 3.15625q-1.109375 1.109375 -3.140625 1.109375q-2.03125 0 -3.203125 -1.109375q-1.171875 -1.125 -1.171875 -3.15625l0 -45.0q0 -1.921875 1.171875 -3.09375q1.171875 -1.1875 3.203125 -1.1875q1.921875 0 3.03125 1.1875q1.125 1.171875 1.125 2.984375l0 5.4375q2.5625 -4.796875 7.140625 -7.296875q4.59375 -2.515625 10.453125 -2.515625zm74.658875 41.171875q1.171875 0 2.03125 0.96875q0.859375 0.953125 0.859375 2.4375q0 2.671875 -3.734375 4.90625q-3.84375 2.234375 -8.109375 3.359375q-4.265625 1.125 -8.3125 1.125q-12.0625 0 -19.046875 -7.140625q-6.984375 -7.15625 -6.984375 -19.734375q0 -8.0 3.09375 -14.125q3.09375 -6.140625 8.6875 -9.546875q5.609375 -3.421875 12.75 -3.421875q10.125 0 16.09375 6.609375q5.984375 6.609375 5.984375 17.921875q0 2.125 -0.859375 3.09375q-0.84375 0.953125 -2.765625 0.953125l-34.34375 0q0.953125 18.34375 17.390625 18.34375q4.15625 0 7.140625 -1.109375q2.984375 -1.125 6.390625 -3.046875q2.78125 -1.59375 3.734375 -1.59375zm-18.65625 -34.453125q-6.828125 0 -10.9375 4.265625q-4.109375 4.265625 -4.84375 12.046875l30.171875 0q-0.203125 -7.890625 -3.9375 -12.09375q-3.734375 -4.21875 -10.453125 -4.21875zm52.145386 47.25q-4.90625 0 -9.328125 -1.171875q-4.421875 -1.171875 -7.84375 -3.3125q-1.90625 -1.28125 -2.71875 -2.390625q-0.796875 -1.125 -0.796875 -2.734375q0 -1.375 0.796875 -2.28125q0.8125 -0.90625 2.078125 -0.90625q1.28125 0 3.734375 1.59375q3.203125 1.921875 6.34375 3.046875q3.15625 1.109375 7.84375 1.109375q5.765625 0 8.953125 -2.015625q3.203125 -2.03125 3.203125 -5.875q0 -2.34375 -1.171875 -3.78125q-1.171875 -1.4375 -4.046875 -2.5625q-2.875 -1.125 -8.421875 -2.296875q-9.390625 -2.015625 -13.453125 -5.421875q-4.046875 -3.421875 -4.046875 -9.296875q0 -4.578125 2.5625 -8.09375q2.5625 -3.53125 7.09375 -5.546875q4.53125 -2.03125 10.296875 -2.03125q4.15625 0 8.046875 1.125q3.890625 1.109375 6.875 3.140625q3.625 2.5625 3.625 5.328125q0 1.390625 -0.859375 2.359375q-0.84375 0.953125 -2.015625 0.953125q-1.28125 0 -3.84375 -1.8125q-2.984375 -1.921875 -5.65625 -2.984375q-2.65625 -1.078125 -6.609375 -1.078125q-5.0 0 -8.046875 2.25q-3.046875 2.234375 -3.046875 5.96875q0 2.34375 1.125 3.78125q1.125 1.4375 3.734375 2.5625q2.609375 1.125 7.515625 2.1875q7.25 1.59375 11.25 3.515625q4.0 1.921875 5.703125 4.703125q1.71875 2.765625 1.71875 7.03125q0 6.71875 -5.65625 10.828125q-5.65625 4.109375 -14.9375 4.109375zm59.835693 -53.96875q6.828125 0 12.046875 3.421875q5.234375 3.40625 8.109375 9.546875q2.890625 6.125 2.890625 14.21875q0 8.109375 -2.890625 14.140625q-2.875 6.03125 -8.046875 9.34375q-5.171875 3.296875 -12.109375 3.296875q-6.078125 0 -10.609375 -2.671875q-4.53125 -2.671875 -6.875 -7.578125l0 25.078125q0 1.90625 -1.125 3.03125q-1.109375 1.125 -3.140625 1.125q-2.03125 0 -3.203125 -1.171875q-1.171875 -1.171875 -1.171875 -2.984375l0 -64.3125q0 -1.921875 1.171875 -3.09375q1.171875 -1.1875 3.203125 -1.1875q2.03125 0 3.140625 1.1875q1.125 1.171875 1.125 3.09375l0 5.75q2.34375 -4.90625 6.875 -7.5625q4.53125 -2.671875 10.609375 -2.671875zm-1.703125 46.8125q7.578125 0 11.734375 -5.109375q4.15625 -5.125 4.15625 -14.515625q0 -9.375 -4.15625 -14.65625q-4.15625 -5.28125 -11.734375 -5.28125q-7.578125 0 -11.6875 5.125q-4.09375 5.109375 -4.09375 14.609375q0 9.484375 4.09375 14.65625q4.109375 5.171875 11.6875 5.171875zm77.855225 -5.640625q1.171875 0 2.03125 0.96875q0.859375 0.953125 0.859375 2.4375q0 2.671875 -3.734375 4.90625q-3.84375 2.234375 -8.109375 3.359375q-4.265625 1.125 -8.3125 1.125q-12.0625 0 -19.046875 -7.140625q-6.984375 -7.15625 -6.984375 -19.734375q0 -8.0 3.09375 -14.125q3.09375 -6.140625 8.6875 -9.546875q5.609375 -3.421875 12.75 -3.421875q10.125 0 16.09375 6.609375q5.984375 6.609375 5.984375 17.921875q0 2.125 -0.859375 3.09375q-0.84375 0.953125 -2.765625 0.953125l-34.34375 0q0.953125 18.34375 17.390625 18.34375q4.15625 0 7.140625 -1.109375q2.984375 -1.125 6.390625 -3.046875q2.78125 -1.59375 3.734375 -1.59375zm-18.65625 -34.453125q-6.828125 0 -10.9375 4.265625q-4.109375 4.265625 -4.84375 12.046875l30.171875 0q-0.203125 -7.890625 -3.9375 -12.09375q-3.734375 -4.21875 -10.453125 -4.21875zm60.364136 -6.515625q4.484375 -0.3125 4.484375 3.640625q0 1.703125 -0.96875 2.71875q-0.953125 1.0 -3.296875 1.21875l-3.203125 0.328125q-7.140625 0.640625 -10.609375 5.0625q-3.46875 4.421875 -3.46875 10.390625l0 25.921875q0 2.140625 -1.171875 3.203125q-1.171875 1.0625 -3.09375 1.0625q-1.921875 0 -3.15625 -1.109375q-1.21875 -1.125 -1.21875 -3.15625l0 -45.0q0 -2.03125 1.28125 -3.15625q1.28125 -1.125 3.09375 -1.125q1.703125 0 2.875 1.125q1.171875 1.125 1.171875 3.046875l0 5.96875q2.25 -4.6875 6.34375 -7.140625q4.109375 -2.453125 9.4375 -2.890625l1.5 -0.109375zm32.738647 -0.203125q19.515625 0 19.515625 20.46875l0 29.015625q0 1.921875 -1.125 3.09375q-1.109375 1.171875 -3.03125 1.171875q-1.921875 0 -3.09375 -1.171875q-1.171875 -1.171875 -1.171875 -3.09375l0 -5.125q-2.015625 4.59375 -6.1875 7.109375q-4.15625 2.5 -9.59375 2.5q-5.015625 0 -9.234375 -2.03125q-4.203125 -2.03125 -6.65625 -5.65625q-2.453125 -3.625 -2.453125 -8.0q0 -5.859375 2.984375 -9.109375q2.984375 -3.25 9.8125 -4.6875q6.828125 -1.453125 18.984375 -1.453125l2.34375 0l0 -3.515625q0 -6.40625 -2.609375 -9.390625q-2.609375 -2.984375 -8.484375 -2.984375q-7.25 0 -14.71875 3.953125q-2.875 1.8125 -4.046875 1.8125q-1.28125 0 -2.140625 -0.953125q-0.84375 -0.96875 -0.84375 -2.46875q0 -1.484375 0.90625 -2.609375q0.90625 -1.125 2.9375 -2.296875q3.71875 -2.125 8.46875 -3.34375q4.75 -1.234375 9.4375 -1.234375zm-3.515625 47.140625q6.40625 0 10.5 -4.3125q4.109375 -4.328125 4.109375 -11.15625l0 -3.09375l-1.921875 0q-9.375 0 -14.28125 0.8125q-4.90625 0.796875 -7.0 2.65625q-2.078125 1.859375 -2.078125 5.5q0 4.15625 3.046875 6.875q3.046875 2.71875 7.625 2.71875zm80.52783 -69.640625q2.03125 0 3.203125 1.171875q1.171875 1.171875 1.171875 2.984375l0 67.828125q0 1.921875 -1.171875 3.09375q-1.171875 1.171875 -3.203125 1.171875q-2.03125 0 -3.15625 -1.171875q-1.109375 -1.171875 -1.109375 -3.09375l0 -5.765625q-2.34375 4.90625 -6.890625 7.578125q-4.53125 2.671875 -10.609375 2.671875q-6.8125 0 -12.046875 -3.40625q-5.21875 -3.421875 -8.109375 -9.546875q-2.875 -6.140625 -2.875 -14.25q0 -8.0 2.875 -14.078125q2.890625 -6.078125 8.109375 -9.375q5.234375 -3.3125 12.046875 -3.3125q6.078125 0 10.609375 2.671875q4.546875 2.65625 6.890625 7.5625l0 -28.578125q0 -1.921875 1.109375 -3.03125q1.125 -1.125 3.15625 -1.125zm-20.046875 69.3125q7.5625 0 11.671875 -5.171875q4.109375 -5.171875 4.109375 -14.65625q0 -9.5 -4.109375 -14.609375q-4.109375 -5.125 -11.671875 -5.125q-7.578125 0 -11.796875 5.125q-4.203125 5.109375 -4.203125 14.390625q0 9.5 4.203125 14.78125q4.21875 5.265625 11.796875 5.265625zm61.9646 7.15625q-7.359375 0 -12.96875 -3.296875q-5.59375 -3.3125 -8.640625 -9.4375q-3.03125 -6.140625 -3.03125 -14.25q0 -8.109375 3.03125 -14.234375q3.046875 -6.140625 8.640625 -9.4375q5.609375 -3.3125 12.96875 -3.3125q7.359375 0 13.0 3.3125q5.65625 3.296875 8.6875 9.4375q3.046875 6.125 3.046875 14.234375q0 8.109375 -3.046875 14.25q-3.03125 6.125 -8.6875 9.4375q-5.640625 3.296875 -13.0 3.296875zm0 -7.15625q7.671875 0 11.78125 -5.0625q4.109375 -5.0625 4.109375 -14.765625q0 -9.5 -4.171875 -14.671875q-4.15625 -5.171875 -11.71875 -5.171875q-7.578125 0 -11.734375 5.171875q-4.15625 5.171875 -4.15625 14.671875q0 9.59375 4.09375 14.71875q4.109375 5.109375 11.796875 5.109375zm91.28967 -46.8125q18.671875 0 18.671875 20.578125l0 28.90625q0 2.03125 -1.125 3.15625q-1.109375 1.109375 -3.140625 1.109375q-2.03125 0 -3.203125 -1.109375q-1.171875 -1.125 -1.171875 -3.15625l0 -28.375q0 -7.25 -2.828125 -10.546875q-2.828125 -3.3125 -9.015625 -3.3125q-7.140625 0 -11.40625 4.375q-4.265625 4.375 -4.265625 11.84375l0 26.015625q0 2.03125 -1.125 3.15625q-1.109375 1.109375 -3.140625 1.109375q-2.03125 0 -3.203125 -1.109375q-1.171875 -1.125 -1.171875 -3.15625l0 -45.0q0 -1.921875 1.171875 -3.09375q1.171875 -1.1875 3.203125 -1.1875q1.921875 0 3.03125 1.1875q1.125 1.171875 1.125 2.984375l0 5.4375q2.5625 -4.796875 7.140625 -7.296875q4.59375 -2.515625 10.453125 -2.515625zm56.002686 53.96875q-7.359375 0 -12.96875 -3.296875q-5.59375 -3.3125 -8.640625 -9.4375q-3.03125 -6.140625 -3.03125 -14.25q0 -8.109375 3.03125 -14.234375q3.046875 -6.140625 8.640625 -9.4375q5.609375 -3.3125 12.96875 -3.3125q7.359375 0 13.0 3.3125q5.65625 3.296875 8.6875 9.4375q3.046875 6.125 3.046875 14.234375q0 8.109375 -3.046875 14.25q-3.03125 6.125 -8.6875 9.4375q-5.640625 3.296875 -13.0 3.296875zm0 -7.15625q7.671875 0 11.78125 -5.0625q4.109375 -5.0625 4.109375 -14.765625q0 -9.5 -4.171875 -14.671875q-4.15625 -5.171875 -11.71875 -5.171875q-7.578125 0 -11.734375 5.171875q-4.15625 5.171875 -4.15625 14.671875q0 9.59375 4.09375 14.71875q4.109375 5.109375 11.796875 5.109375zm82.64905 7.15625q-4.90625 0 -9.328125 -1.171875q-4.421875 -1.171875 -7.84375 -3.3125q-1.90625 -1.28125 -2.71875 -2.390625q-0.796875 -1.125 -0.796875 -2.734375q0 -1.375 0.796875 -2.28125q0.8125 -0.90625 2.078125 -0.90625q1.28125 0 3.734375 1.59375q3.203125 1.921875 6.34375 3.046875q3.15625 1.109375 7.84375 1.109375q5.765625 0 8.953125 -2.015625q3.203125 -2.03125 3.203125 -5.875q0 -2.34375 -1.171875 -3.78125q-1.171875 -1.4375 -4.046875 -2.5625q-2.875 -1.125 -8.421875 -2.296875q-9.390625 -2.015625 -13.453125 -5.421875q-4.046875 -3.421875 -4.046875 -9.296875q0 -4.578125 2.5625 -8.09375q2.5625 -3.53125 7.09375 -5.546875q4.53125 -2.03125 10.296875 -2.03125q4.15625 0 8.046875 1.125q3.890625 1.109375 6.875 3.140625q3.625 2.5625 3.625 5.328125q0 1.390625 -0.859375 2.359375q-0.84375 0.953125 -2.015625 0.953125q-1.28125 0 -3.84375 -1.8125q-2.984375 -1.921875 -5.65625 -2.984375q-2.65625 -1.078125 -6.609375 -1.078125q-5.0 0 -8.046875 2.25q-3.046875 2.234375 -3.046875 5.96875q0 2.34375 1.125 3.78125q1.125 1.4375 3.734375 2.5625q2.609375 1.125 7.515625 2.1875q7.25 1.59375 11.25 3.515625q4.0 1.921875 5.703125 4.703125q1.71875 2.765625 1.71875 7.03125q0 6.71875 -5.65625 10.828125q-5.65625 4.109375 -14.9375 4.109375zm38.085693 -0.21875q-1.921875 0 -3.15625 -1.109375q-1.21875 -1.125 -1.21875 -3.15625l0 -45.0q0 -2.03125 1.21875 -3.15625q1.234375 -1.125 3.15625 -1.125q1.921875 0 3.09375 1.125q1.171875 1.125 1.171875 3.15625l0 45.0q0 2.140625 -1.171875 3.203125q-1.171875 1.0625 -3.09375 1.0625zm0 -64.734375q-2.5625 0 -4.171875 -1.484375q-1.59375 -1.5 -1.59375 -3.953125q0 -2.359375 1.59375 -3.84375q1.609375 -1.5 4.171875 -1.5q2.5625 0 4.15625 1.5q1.609375 1.484375 1.609375 3.84375q0 2.453125 -1.609375 3.953125q-1.59375 1.484375 -4.15625 1.484375zm37.853638 64.953125q-4.90625 0 -9.328125 -1.171875q-4.421875 -1.171875 -7.84375 -3.3125q-1.90625 -1.28125 -2.71875 -2.390625q-0.796875 -1.125 -0.796875 -2.734375q0 -1.375 0.796875 -2.28125q0.8125 -0.90625 2.078125 -0.90625q1.28125 0 3.734375 1.59375q3.203125 1.921875 6.34375 3.046875q3.15625 1.109375 7.84375 1.109375q5.765625 0 8.953125 -2.015625q3.203125 -2.03125 3.203125 -5.875q0 -2.34375 -1.171875 -3.78125q-1.171875 -1.4375 -4.046875 -2.5625q-2.875 -1.125 -8.421875 -2.296875q-9.390625 -2.015625 -13.453125 -5.421875q-4.046875 -3.421875 -4.046875 -9.296875q0 -4.578125 2.5625 -8.09375q2.5625 -3.53125 7.09375 -5.546875q4.53125 -2.03125 10.296875 -2.03125q4.15625 0 8.046875 1.125q3.890625 1.109375 6.875 3.140625q3.625 2.5625 3.625 5.328125q0 1.390625 -0.859375 2.359375q-0.84375 0.953125 -2.015625 0.953125q-1.28125 0 -3.84375 -1.8125q-2.984375 -1.921875 -5.65625 -2.984375q-2.65625 -1.078125 -6.609375 -1.078125q-5.0 0 -8.046875 2.25q-3.046875 2.234375 -3.046875 5.96875q0 2.34375 1.125 3.78125q1.125 1.4375 3.734375 2.5625q2.609375 1.125 7.515625 2.1875q7.25 1.59375 11.25 3.515625q4.0 1.921875 5.703125 4.703125q1.71875 2.765625 1.71875 7.03125q0 6.71875 -5.65625 10.828125q-5.65625 4.109375 -14.9375 4.109375zm57.177246 -7.046875q3.734375 0.328125 3.734375 3.421875q0 1.8125 -1.34375 2.71875q-1.328125 0.90625 -4.0 0.6875l-2.875 -0.21875q-8.53125 -0.625 -12.59375 -5.109375q-4.046875 -4.484375 -4.046875 -13.546875l0 -26.765625l-7.140625 0q-1.8125 0 -2.828125 -0.90625q-1.015625 -0.90625 -1.015625 -2.40625q0 -1.59375 1.015625 -2.546875q1.015625 -0.96875 2.828125 -0.96875l7.140625 0l0 -12.0625q0 -2.015625 1.171875 -3.140625q1.171875 -1.125 3.203125 -1.125q1.921875 0 3.09375 1.125q1.171875 1.125 1.171875 3.140625l0 12.0625l11.84375 0q1.703125 0 2.71875 0.96875q1.015625 0.953125 1.015625 2.546875q0 1.5 -1.015625 2.40625q-1.015625 0.90625 -2.71875 0.90625l-11.84375 0l0 27.1875q0 5.875 2.390625 8.484375q2.40625 2.609375 7.203125 2.9375l2.890625 0.203125zm52.46631 -5.75q1.171875 0 2.03125 0.96875q0.859375 0.953125 0.859375 2.4375q0 2.671875 -3.734375 4.90625q-3.84375 2.234375 -8.109375 3.359375q-4.265625 1.125 -8.3125 1.125q-12.0625 0 -19.046875 -7.140625q-6.984375 -7.15625 -6.984375 -19.734375q0 -8.0 3.09375 -14.125q3.09375 -6.140625 8.6875 -9.546875q5.609375 -3.421875 12.75 -3.421875q10.125 0 16.09375 6.609375q5.984375 6.609375 5.984375 17.921875q0 2.125 -0.859375 3.09375q-0.84375 0.953125 -2.765625 0.953125l-34.34375 0q0.953125 18.34375 17.390625 18.34375q4.15625 0 7.140625 -1.109375q2.984375 -1.125 6.390625 -3.046875q2.78125 -1.59375 3.734375 -1.59375zm-18.65625 -34.453125q-6.828125 0 -10.9375 4.265625q-4.109375 4.265625 -4.84375 12.046875l30.171875 0q-0.203125 -7.890625 -3.9375 -12.09375q-3.734375 -4.21875 -10.453125 -4.21875zm92.47351 -6.71875q17.265625 0 17.265625 20.578125l0 28.90625q0 2.03125 -1.171875 3.15625q-1.171875 1.109375 -3.09375 1.109375q-1.90625 0 -3.140625 -1.109375q-1.21875 -1.125 -1.21875 -3.15625l0 -28.6875q0 -7.140625 -2.5625 -10.34375q-2.5625 -3.203125 -8.0 -3.203125q-6.515625 0 -10.25 4.375q-3.71875 4.375 -3.71875 11.84375l0 26.015625q0 2.03125 -1.234375 3.15625q-1.21875 1.109375 -3.140625 1.109375q-1.921875 0 -3.09375 -1.109375q-1.171875 -1.125 -1.171875 -3.15625l0 -28.6875q0 -7.140625 -2.5625 -10.34375q-2.5625 -3.203125 -8.109375 -3.203125q-6.390625 0 -10.1875 4.375q-3.78125 4.375 -3.78125 11.84375l0 26.015625q0 2.03125 -1.171875 3.15625q-1.171875 1.109375 -3.09375 1.109375q-1.921875 0 -3.15625 -1.109375q-1.21875 -1.125 -1.21875 -3.15625l0 -45.0q0 -1.921875 1.21875 -3.09375q1.234375 -1.1875 3.15625 -1.1875q1.8125 0 2.984375 1.125q1.171875 1.125 1.171875 3.046875l0 5.109375q2.34375 -4.578125 6.5 -7.03125q4.171875 -2.453125 9.609375 -2.453125q12.15625 0 15.890625 10.234375q2.234375 -4.6875 6.8125 -7.453125q4.59375 -2.78125 10.46875 -2.78125zm54.277466 0q19.515625 0 19.515625 20.46875l0 29.015625q0 1.921875 -1.125 3.09375q-1.109375 1.171875 -3.03125 1.171875q-1.921875 0 -3.09375 -1.171875q-1.171875 -1.171875 -1.171875 -3.09375l0 -5.125q-2.015625 4.59375 -6.1875 7.109375q-4.15625 2.5 -9.59375 2.5q-5.015625 0 -9.234375 -2.03125q-4.203125 -2.03125 -6.65625 -5.65625q-2.453125 -3.625 -2.453125 -8.0q0 -5.859375 2.984375 -9.109375q2.984375 -3.25 9.8125 -4.6875q6.828125 -1.453125 18.984375 -1.453125l2.34375 0l0 -3.515625q0 -6.40625 -2.609375 -9.390625q-2.609375 -2.984375 -8.484375 -2.984375q-7.25 0 -14.71875 3.953125q-2.875 1.8125 -4.046875 1.8125q-1.28125 0 -2.140625 -0.953125q-0.84375 -0.96875 -0.84375 -2.46875q0 -1.484375 0.90625 -2.609375q0.90625 -1.125 2.9375 -2.296875q3.71875 -2.125 8.46875 -3.34375q4.75 -1.234375 9.4375 -1.234375zm-3.515625 47.140625q6.40625 0 10.5 -4.3125q4.109375 -4.328125 4.109375 -11.15625l0 -3.09375l-1.921875 0q-9.375 0 -14.28125 0.8125q-4.90625 0.796875 -7.0 2.65625q-2.078125 1.859375 -2.078125 5.5q0 4.15625 3.046875 6.875q3.046875 2.71875 7.625 2.71875zm43.090332 6.609375q-2.5625 0 -4.265625 -1.640625q-1.703125 -1.65625 -1.703125 -4.328125q0 -2.671875 1.703125 -4.375q1.703125 -1.703125 4.265625 -1.703125q2.453125 0 4.109375 1.703125q1.65625 1.703125 1.65625 4.375q0 2.671875 -1.65625 4.328125q-1.65625 1.640625 -4.109375 1.640625z" fill-rule="nonzero"/><path fill="#b7b7b7" d="m95.53281 239.49869l36.44095 0l0 576.9448l-36.44095 0z" fill-rule="evenodd"/><path stroke="#b7b7b7" stroke-width="1.0" stroke-linejoin="round" stroke-linecap="butt" d="m95.53281 239.49869l36.44095 0l0 576.9448l-36.44095 0z" fill-rule="evenodd"/><path fill="#b7b7b7" d="m765.4934 239.49869l36.44098 0l0 576.9448l-36.44098 0z" fill-rule="evenodd"/><path stroke="#b7b7b7" stroke-width="1.0" stroke-linejoin="round" stroke-linecap="butt" d="m765.4934 239.49869l36.44098 0l0 576.9448l-36.44098 0z" fill-rule="evenodd"/><path fill="#b7b7b7" d="m131.97375 816.44354l0 -36.440918l632.28345 0l0 36.440918z" fill-rule="evenodd"/><path stroke="#b7b7b7" stroke-width="1.0" stroke-linejoin="round" stroke-linecap="butt" d="m131.97375 816.44354l0 -36.440918l632.28345 0l0 36.440918z" fill-rule="evenodd"/><path fill="#b7b7b7" d="m131.97375 275.93964l0 -36.44095l632.28345 0l0 36.44095z" fill-rule="evenodd"/><path stroke="#b7b7b7" stroke-width="1.0" stroke-linejoin="round" stroke-linecap="butt" d="m131.97375 275.93964l0 -36.44095l632.28345 0l0 36.44095z" fill-rule="evenodd"/><path fill="#b7b7b7" d="m267.93466 702.54675l-40.913376 -23.590576l196.15749 -339.7795l40.91339 23.590546z" fill-rule="evenodd"/><path stroke="#b7b7b7" stroke-width="1.0" stroke-linejoin="round" stroke-linecap="butt" d="m267.93466 702.54675l-40.913376 -23.590576l196.15749 -339.7795l40.91339 23.590546z" fill-rule="evenodd"/><path fill="#b7b7b7" d="m670.4463 671.9709l-40.881897 23.653564l-196.1575 -339.77954l40.881897 -23.653534z" fill-rule="evenodd"/><path stroke="#b7b7b7" stroke-width="1.0" stroke-linejoin="round" stroke-linecap="butt" d="m670.4463 671.9709l-40.881897 23.653564l-196.1575 -339.77954l40.881897 -23.653534z" fill-rule="evenodd"/><path fill="#b7b7b7" d="m641.7718 655.2971l0.03149414 47.24408l-392.34647 0l-0.03149414 -47.24408z" fill-rule="evenodd"/><path stroke="#b7b7b7" stroke-width="1.0" stroke-linejoin="round" stroke-linecap="butt" d="m641.7718 655.2971l0.03149414 47.24408l-392.34647 0l-0.03149414 -47.24408z" fill-rule="evenodd"/><path fill="#b7b7b7" d="m472.35434 591.22375l-47.24411 0.03149414l0 -147.1181l47.24411 -0.03149414z" fill-rule="evenodd"/><path stroke="#b7b7b7" stroke-width="1.0" stroke-linejoin="round" stroke-linecap="butt" d="m472.35434 591.22375l-47.24411 0.03149414l0 -147.1181l47.24411 -0.03149414z" fill-rule="evenodd"/><path fill="#b7b7b7" d="m472.35434 639.94934l-47.24411 0.03149414l0 -29.606262l47.24411 -0.03149414z" fill-rule="evenodd"/><path stroke="#b7b7b7" stroke-width="1.0" stroke-linejoin="round" stroke-linecap="butt" d="m472.35434 639.94934l-47.24411 0.03149414l0 -29.606262l47.24411 -0.03149414z" fill-rule="evenodd"/></g></svg>