<svg version="1.1" viewBox="0.0 0.0 1198.2020997375328 472.4540682414698" fill="none" stroke="none" stroke-linecap="square" stroke-miterlimit="10" xmlns:xlink="http://www.w3.org/1999/xlink" xmlns="http://www.w3.org/2000/svg"><clipPath id="p.0"><path d="m0 0l1198.2021 0l0 472.45407l-1198.2021 0l0 -472.45407z" clip-rule="nonzero"/></clipPath><g clip-path="url(#p.0)"><path fill="#000000" fill-opacity="0.0" d="m0 0l1198.2021 0l0 472.45407l-1198.2021 0z" fill-rule="evenodd"/><path fill="#000000" fill-opacity="0.0" d="m18.69955 236.22804l0 0c0 -122.937706 99.66069 -222.5984 222.59839 -222.5984l0 0c59.036774 0 115.65555 23.452263 157.40085 65.197556c41.74527 41.7453 65.19754 98.36407 65.19754 157.40085l0 0c0 122.9377 -99.660675 222.59837 -222.59839 222.59837l0 0c-122.9377 0 -222.59839 -99.660675 -222.59839 -222.59837z" fill-rule="evenodd"/><path stroke="#741b47" stroke-width="4.0" stroke-linejoin="round" stroke-linecap="butt" d="m18.69955 236.22804l0 0c0 -122.937706 99.66069 -222.5984 222.59839 -222.5984l0 0c59.036774 0 115.65555 23.452263 157.40085 65.197556c41.74527 41.7453 65.19754 98.36407 65.19754 157.40085l0 0c0 122.9377 -99.660675 222.59837 -222.59839 222.59837l0 0c-122.9377 0 -222.59839 -99.660675 -222.59839 -222.59837z" fill-rule="evenodd"/><path fill="#741b47" d="m293.81787 80.08321l0 0c70.15555 0 127.02786 70.03463 127.02786 156.4267c0 86.39209 -56.872314 156.42673 -127.02786 156.42673l0 -63.513916l0 0c35.07779 0 63.513916 -41.59848 63.513916 -92.91281c0 -51.314316 -28.436127 -92.91278 -63.513916 -92.91278z" fill-rule="evenodd"/><path stroke="#741b47" stroke-width="1.0" stroke-linejoin="round" stroke-linecap="butt" d="m293.81787 80.08321l0 0c70.15555 0 127.02786 70.03463 127.02786 156.4267c0 86.39209 -56.872314 156.42673 -127.02786 156.42673l0 -63.513916l0 0c35.07779 0 63.513916 -41.59848 63.513916 -92.91281c0 -51.314316 -28.436127 -92.91278 -63.513916 -92.91278z" fill-rule="evenodd"/><path fill="#741b47" d="m188.8735 392.93665l0 0c-70.15553 0 -127.02783 -70.03464 -127.02783 -156.42673c0 -86.392075 56.8723 -156.4267 127.02783 -156.4267l0 63.513924l0 0c-35.07776 0 -63.513916 41.598465 -63.513916 92.91278c0 51.31433 28.436157 92.91281 63.513916 92.91281z" fill-rule="evenodd"/><path stroke="#741b47" stroke-width="1.0" stroke-linejoin="round" stroke-linecap="butt" d="m188.8735 392.93665l0 0c-70.15553 0 -127.02783 -70.03464 -127.02783 -156.42673c0 -86.392075 56.8723 -156.4267 127.02783 -156.4267l0 63.513924l0 0c-35.07776 0 -63.513916 41.598465 -63.513916 92.91278c0 51.31433 28.436157 92.91281 63.513916 92.91281z" fill-rule="evenodd"/><path fill="#741b47" d="m332.46866 108.73077l0 0c4.545166 3.6602097 6.010742 10.805473 3.273468 15.959396l-139.55188 262.75638c-1.3144989 2.4749756 -3.4421997 4.1503906 -5.9150696 4.657593c-2.4728699 0.50720215 -5.088318 -0.1953125 -7.270981 -1.9530029l-32.918015 -26.508759c-4.545166 -3.6602173 -6.010742 -10.805481 -3.2734528 -15.959412l139.55186 -262.75635l0 0c2.7372742 -5.153923 8.640869 -6.3648224 13.186035 -2.7046127z" fill-rule="evenodd"/><path stroke="#741b47" stroke-width="1.0" stroke-linejoin="round" stroke-linecap="butt" d="m332.46866 108.73077l0 0c4.545166 3.6602097 6.010742 10.805473 3.273468 15.959396l-139.55188 262.75638c-1.3144989 2.4749756 -3.4421997 4.1503906 -5.9150696 4.657593c-2.4728699 0.50720215 -5.088318 -0.1953125 -7.270981 -1.9530029l-32.918015 -26.508759c-4.545166 -3.6602173 -6.010742 -10.805481 -3.2734528 -15.959412l139.55186 -262.75635l0 0c2.7372742 -5.153923 8.640869 -6.3648224 13.186035 -2.7046127z" fill-rule="evenodd"/><path fill="#741b47" d="m331.71576 107.16332l13.522919 73.55991c-1.4937134 -8.125198 -13.388519 -11.733246 -26.56778 -8.058792c-13.179291 3.6744537 -22.652313 13.23996 -21.1586 21.365158l-13.522919 -73.55991l0 0c-1.4936829 -8.125206 7.9793396 -17.69072 21.15863 -21.365173c13.17926 -3.674446 25.074066 -0.06639862 26.567749 8.058807z" fill-rule="evenodd"/><path stroke="#741b47" stroke-width="1.0" stroke-linejoin="round" stroke-linecap="butt" d="m331.71576 107.16332l13.522919 73.55991c-1.4937134 -8.125198 -13.388519 -11.733246 -26.56778 -8.058792c-13.179291 3.6744537 -22.652313 13.23996 -21.1586 21.365158l-13.522919 -73.55991l0 0c-1.4936829 -8.125206 7.9793396 -17.69072 21.15863 -21.365173c13.17926 -3.674446 25.074066 -0.06639862 26.567749 8.058807z" fill-rule="evenodd"/><path fill="#741b47" d="m157.22543 367.71936l-17.946396 -72.1113c1.9822998 7.9651794 13.374939 10.728668 25.446152 6.172394c12.0711975 -4.556244 20.249878 -14.706909 18.267578 -22.672089l17.946396 72.1113l0 0c1.9822998 7.9651794 -6.1963806 18.115845 -18.267593 22.67212c-12.071213 4.556244 -23.463837 1.7927856 -25.446136 -6.1724243z" fill-rule="evenodd"/><path stroke="#741b47" stroke-width="1.0" stroke-linejoin="round" stroke-linecap="butt" d="m157.22543 367.71936l-17.946396 -72.1113c1.9822998 7.9651794 13.374939 10.728668 25.446152 6.172394c12.0711975 -4.556244 20.249878 -14.706909 18.267578 -22.672089l17.946396 72.1113l0 0c1.9822998 7.9651794 -6.1963806 18.115845 -18.267593 22.67212c-12.071213 4.556244 -23.463837 1.7927856 -25.446136 -6.1724243z" fill-rule="evenodd"/><path fill="#741b47" d="m226.90657 79.517685l30.633926 0l-30.633926 65.36043z" fill-rule="evenodd"/><path stroke="#741b47" stroke-width="1.0" stroke-linejoin="round" stroke-linecap="butt" d="m226.90657 79.517685l30.633926 0l-30.633926 65.36043z" fill-rule="evenodd"/><path fill="#741b47" d="m226.98326 80.08274l0 63.955864l-40.73221 0l0 -63.955864z" fill-rule="evenodd"/><path stroke="#741b47" stroke-width="1.0" stroke-linejoin="round" stroke-linecap="butt" d="m226.98326 80.08274l0 63.955864l-40.73221 0l0 -63.955864z" fill-rule="evenodd"/><path fill="#741b47" d="m253.81114 392.93616l-30.633911 0l30.633911 -65.36041z" fill-rule="evenodd"/><path stroke="#741b47" stroke-width="1.0" stroke-linejoin="round" stroke-linecap="butt" d="m253.81114 392.93616l-30.633911 0l30.633911 -65.36041z" fill-rule="evenodd"/><path fill="#741b47" d="m253.73447 392.37112l0 -63.95587l40.73221 0l0 63.95587z" fill-rule="evenodd"/><path stroke="#741b47" stroke-width="1.0" stroke-linejoin="round" stroke-linecap="butt" d="m253.73447 392.37112l0 -63.95587l40.73221 0l0 63.95587z" fill-rule="evenodd"/><path fill="#000000" fill-opacity="0.0" d="m521.0131 94.33596l638.86615 0l0 283.7795l-638.86615 0z" fill-rule="evenodd"/><path fill="#741b47" d="m588.4194 244.85072q-24.125 -6.9375 -35.109375 -17.046875q-10.984375 -10.109375 -10.984375 -24.953125q0 -16.796875 13.421875 -27.78125q13.421875 -10.984375 34.90625 -10.984375q14.65625 0 26.125 5.671875q11.484375 5.65625 17.78125 15.625q6.296875 9.953125 6.296875 21.765625l-18.84375 0q0 -12.890625 -8.203125 -20.265625q-8.203125 -7.375 -23.15625 -7.375q-13.859375 0 -21.625 6.109375q-7.765625 6.109375 -7.765625 16.9375q0 8.703125 7.375 14.703125q7.375 6.0 25.09375 10.984375q17.734375 4.984375 27.734375 11.0q10.015625 6.0 14.84375 14.015625q4.84375 8.000015 4.84375 18.82814q0 17.296875 -13.484375 27.703125q-13.46875 10.390625 -36.03125 10.390625q-14.65625 0 -27.359375 -5.609375q-12.6875 -5.625 -19.578125 -15.390625q-6.875 -9.765625 -6.875 -22.171875l18.84375 0q0 12.890625 9.515625 20.375q9.53125 7.46875 25.453125 7.46875q14.84375 0 22.75 -6.046875q7.90625 -6.0625 7.90625 -16.515625q0 -10.453125 -7.328125 -16.15625q-7.3125 -5.7187653 -26.546875 -11.281265zm69.13672 9.5625q0 -15.53125 6.09375 -27.921875q6.109375 -12.40625 17.0 -19.140625q10.890625 -6.75 24.859375 -6.75q21.578125 0 34.90625 14.953125q13.328125 14.9375 13.328125 39.734375l0 1.2812653q0 15.421875 -5.90625 27.6875q-5.90625 12.25 -16.890625 19.09375q-10.984375 6.828125 -25.25 6.828125q-21.484375 0 -34.8125 -14.9375q-13.328125 -14.953125 -13.328125 -39.562515l0 -1.265625zm18.15625 2.1562653q0 17.578125 8.15625 28.21875q8.15625 10.640625 21.828125 10.640625q13.765625 0 21.875 -10.78125q8.109375 -10.796875 8.109375 -30.23439q0 -17.375 -8.25 -28.171875q-8.25 -10.796875 -21.921875 -10.796875q-13.390625 0 -21.59375 10.65625q-8.203125 10.640625 -8.203125 30.468765zm109.578125 51.65625l0 -91.70314l-16.703125 0l0 -13.96875l16.703125 0l0 -10.828125q0 -17.0 9.078125 -26.265625q9.078125 -9.28125 25.6875 -9.28125q6.25 0 12.40625 1.65625l-0.984375 14.640625q-4.59375 -0.875 -9.765625 -0.875q-8.78125 0 -13.578125 5.125q-4.78125 5.125 -4.78125 14.703125l0 11.125l22.5625 0l0 13.96875l-22.5625 0l0 91.70314l-18.0625 0zm85.05859 -131.25002l0 25.578125l19.71875 0l0 13.96875l-19.71875 0l0 65.531265q0 6.34375 2.625 9.515625q2.640625 3.171875 9.0 3.171875q3.125 0 8.59375 -1.171875l0 14.65625q-7.140625 1.953125 -13.875 1.953125q-12.109375 0 -18.265625 -7.328125q-6.140625 -7.328125 -6.140625 -20.796875l0 -65.531265l-19.25 0l0 -13.96875l19.25 0l0 -25.578125l18.0625 0zm75.39453 104.781265l24.609375 -79.20314l19.328125 0l-42.484375 121.98439q-9.859375 26.359375 -31.34375 26.359375l-3.421875 -0.28125l-6.734375 -1.28125l0 -14.640625l4.890625 0.390625q9.171875 0 14.296875 -3.71875q5.125 -3.703125 8.453125 -13.5625l4.0 -10.75l-37.6875 -104.500015l19.71875 0l26.375 79.20314zm143.06647 -101.750015l-13.671875 38.46875l-5.078125 0l-13.671875 -38.375l0 38.375l-8.796875 0l0 -52.4375l10.9375 0l14.0625 38.96875l14.0625 -38.96875l10.9375 0l0 52.4375l-8.78125 0l0 -38.46875zm-48.9375 -6.0625l-14.34375 0l0 44.53125l-8.890686 0l0 -44.53125l-14.453125 0l0 -7.90625l37.68756 0l0 7.90625z" fill-rule="nonzero"/></g></svg>